<svg width="21" height="21" viewBox="0 0 21 21" fill="none" xmlns="http://www.w3.org/2000/svg">
<path d="M7.00311 6.97803L11.1962 6.99378M6.97949 13.2677L10.1243 13.2795M6.9913 10.1229L13.281 10.1465" stroke="black" stroke-width="1.4" stroke-linecap="round"/>
<path d="M1.08202 6.90363C1.7759 3.99469 4.05777 1.7299 6.97184 1.05789C9.07635 0.572575 11.2646 0.580795 13.3654 1.08191C16.2744 1.77579 18.5391 4.05766 19.2112 6.97173C19.6965 9.07624 19.6883 11.2645 19.1871 13.3653C18.4933 16.2743 16.2114 18.539 13.2973 19.2111C11.1928 19.6964 9.00455 19.6881 6.90374 19.187C3.9948 18.4932 1.73001 16.2113 1.058 13.2972C0.572682 11.1927 0.580902 9.00444 1.08202 6.90363Z" stroke="black" stroke-width="1.4"/>
</svg>
