<svg width="15" height="16" viewBox="0 0 15 16" fill="none" xmlns="http://www.w3.org/2000/svg">
<path d="M13.6785 6.4577L9.82346 4.9682L8.42158 0.872267C8.33414 0.616647 8.17477 0.395815 7.96512 0.239763C7.75547 0.0837104 7.50569 0 7.24971 0C6.99373 0 6.74395 0.0837104 6.53429 0.239763C6.32464 0.395815 6.16527 0.616647 6.07783 0.872267L4.67596 4.9682L0.820957 6.4577C0.580373 6.5506 0.372532 6.71993 0.225659 6.94269C0.0787863 7.16544 0 7.43083 0 7.70281C0 7.97479 0.0787863 8.24018 0.225659 8.46294C0.372532 8.6857 0.580373 8.85503 0.820957 8.94793L4.67596 10.4374L6.07783 14.5334C6.16527 14.789 6.32464 15.0098 6.53429 15.1659C6.74395 15.3219 6.99373 15.4056 7.24971 15.4056C7.50569 15.4056 7.75547 15.3219 7.96512 15.1659C8.17477 15.0098 8.33414 14.789 8.42158 14.5334L9.82346 10.4374L13.6785 8.94793C13.919 8.85503 14.1269 8.6857 14.2738 8.46294C14.4206 8.24018 14.4994 7.97479 14.4994 7.70281C14.4994 7.43083 14.4206 7.16544 14.2738 6.94269C14.1269 6.71993 13.919 6.5506 13.6785 6.4577ZM9.20033 8.98113C9.02888 9.04716 8.87317 9.1524 8.74422 9.28941C8.61527 9.42642 8.51622 9.59186 8.45408 9.77402L7.24971 13.2936L6.04533 9.77402C5.98319 9.59186 5.88414 9.42642 5.75519 9.28941C5.62624 9.1524 5.47053 9.04716 5.29908 8.98113L1.98658 7.70281L5.29908 6.42317C5.47053 6.35714 5.62624 6.2519 5.75519 6.11489C5.88414 5.97788 5.98319 5.81244 6.04533 5.63027L7.24971 2.11074L8.45408 5.63027C8.51622 5.81244 8.61527 5.97788 8.74422 6.11489C8.87317 6.2519 9.02888 6.35714 9.20033 6.42317L12.5128 7.70281L9.20033 8.98113Z" fill="#33C6AB"/>
</svg>
